# xmcd
#
# Track frame offsets: 
#        150
#        25585
#        48020
#        63447
#        82285
#        102777
#        123227
#        139932
#        161487
#        182672
#        200152
#        224905
#        252137
#
# Disc length: 3636 seconds
#
# Revision: 1
# Processed by: cddbd v1.5.2PL0 Copyright (c) Steve Scherf et al.
# Submitted via: ExactAudioCopy v1.0b6
#
DISCID=bb0e320d
DTITLE=DNA - Taste This (JP CD)
DYEAR=1992
DGENRE=House
TTITLE0=Can You Handle It
TTITLE1=Strong
TTITLE2=Salt Water
TTITLE3=Blue Love
TTITLE4=I Don't Need You
TTITLE5=Light Of The World
TTITLE6=I Specialise
TTITLE7=Welcome To The Love
TTITLE8=All Or Nothing
TTITLE9=La Serenissima
TTITLE10=Tom's Diner
TTITLE11=Theme II
TTITLE12=The First Time
EXTD=
EXTT0=
EXTT1=
EXTT2=
EXTT3=
EXTT4=
EXTT5=
EXTT6=
EXTT7=
EXTT8=
EXTT9=
EXTT10=
EXTT11=
EXTT12=
PLAYORDER=
